<svg xmlns="http://www.w3.org/2000/svg" xmlns:xlink="http://www.w3.org/1999/xlink" width="86" height="86" viewBox="0 0 86 86">
  <defs>
    <clipPath id="clip-path">
      <rect id="Rectangle_4750" data-name="Rectangle 4750" width="37.464" height="37.089" fill="none"/>
    </clipPath>
  </defs>
  <g id="Group_13111" data-name="Group 13111" transform="translate(-377 -440)">
    <circle id="Ellipse_520" data-name="Ellipse 520" cx="43" cy="43" r="43" transform="translate(377 440)" fill="#fff" opacity="0.31"/>
    <g id="Group_13113" data-name="Group 13113" transform="translate(398.739 466.202)">
      <g id="Group_13112" data-name="Group 13112" clip-path="url(#clip-path)">
        <path id="Path_9282" data-name="Path 9282" d="M0,10.511a1.61,1.61,0,0,1,.988-.728c1.787-.6,3.569-1.221,5.352-1.834.125-.043.248-.088.39-.138-.094-.539-.182-1.053-.273-1.566-.152-.861.1-1.232.96-1.38C9.4,4.521,11.376,4.181,13.4,3.832c0-.5,0-1,0-1.493,0-.439-.009-.878,0-1.317A.947.947,0,0,1,14.379.013c.121-.008.244,0,.366,0Q23.211.008,31.678,0a1.59,1.59,0,0,1,1.205.476c1.37,1.336,2.76,2.653,4.153,3.964a1.257,1.257,0,0,1,.427.994q-.014,11.7-.007,23.407c0,.861-.334,1.2-1.188,1.2-1.536,0-3.077-.077-4.607.025a13.452,13.452,0,0,0-3.5.615c-5.87,2.049-11.711,4.182-17.563,6.286-.79.284-1.213.085-1.5-.708Q7.04,30.54,4.985,24.819a2.408,2.408,0,0,1-.089-.278.534.534,0,0,1,.343-.676.52.52,0,0,1,.681.328c.233.6.444,1.211.663,1.818l3.456,9.62c.033.091.072.179.13.323l12-4.315-.015-.057q-1.58.268-3.159.537-3.456.593-6.912,1.187a.924.924,0,0,1-1.12-.829q-.587-3.365-1.161-6.732-1.044-6.085-2.085-12.17c-.263-1.535-.528-3.069-.8-4.668L1.147,10.887c.193.544.372,1.056.556,1.567Q3.352,17.04,5,21.626a1.768,1.768,0,0,1,.1.311.518.518,0,0,1-.349.611.5.5,0,0,1-.637-.212,1.917,1.917,0,0,1-.169-.4Q2.014,16.559.079,11.183A1.557,1.557,0,0,0,0,11.023v-.512M14.5,28.917H36.342V5.78H35.9c-1.134,0-2.268.011-3.4-.022a1.228,1.228,0,0,1-1.262-1.321c-.005-.28,0-.561,0-.841,0-.814,0-1.628,0-2.465H14.5v.455q0,6.895,0,13.789a2.832,2.832,0,0,1-.011.4.493.493,0,0,1-.487.458.488.488,0,0,1-.555-.373,1.754,1.754,0,0,1-.043-.469q0-4.993,0-9.985V4.946L7.527,5.956l4.5,26.247,12.266-2.1-.006-.058H23.85q-4.645,0-9.29,0c-.8,0-1.157-.355-1.157-1.162q0-5.212,0-10.424c0-.486.2-.755.551-.757s.543.259.546.751c0,.085,0,.171,0,.256V28.917ZM32.329,1.478c0,1,.011,1.912-.006,2.82-.006.3.115.382.384.38.913,0,1.826,0,2.739,0a.771.771,0,0,0,.183-.056l-3.3-3.145" transform="translate(0 -0.001)"/>
        <path id="Path_9283" data-name="Path 9283" d="M183.942,162.512h-7.567a1.71,1.71,0,0,1-.364-.014.544.544,0,0,1-.013-1.066,1.569,1.569,0,0,1,.364-.017h15.17c.085,0,.171,0,.256,0a.546.546,0,1,1,.013,1.092c-.1.008-.195,0-.292,0h-7.566" transform="translate(-158.41 -145.638)"/>
        <path id="Path_9284" data-name="Path 9284" d="M183.957,121.6h7.529a2.7,2.7,0,0,1,.365.01.459.459,0,0,1,.448.486.994.994,0,0,1-.34.537c-.086.08-.277.061-.421.061q-7.6,0-15.2,0a2.255,2.255,0,0,1-.256-.005.552.552,0,0,1-.536-.578.528.528,0,0,1,.557-.509c.389-.011.78,0,1.169,0h6.688" transform="translate(-158.385 -109.715)"/>
        <path id="Path_9285" data-name="Path 9285" d="M183.94,202.331H176.3c-.122,0-.278.037-.357-.023a1.1,1.1,0,0,1-.4-.458.44.44,0,0,1,.308-.55,1.348,1.348,0,0,1,.465-.063q7.584,0,15.168,0c.061,0,.122,0,.183,0,.39.02.64.242.635.563s-.251.531-.652.532q-3.856,0-7.712,0" transform="translate(-158.368 -181.565)"/>
        <path id="Path_9286" data-name="Path 9286" d="M183.951,81.662h7.528a2.521,2.521,0,0,1,.4.015.508.508,0,0,1,.471.554.5.5,0,0,1-.477.512,3.207,3.207,0,0,1-.4.015h-15.02a2.6,2.6,0,0,1-.437-.022.534.534,0,0,1-.03-1.043,1.993,1.993,0,0,1,.435-.03q3.764,0,7.528,0" transform="translate(-158.423 -73.681)"/>
        <path id="Path_9287" data-name="Path 9287" d="M183.916,241.162h7.565a2.747,2.747,0,0,1,.365.012.534.534,0,0,1,.059,1.049,1.713,1.713,0,0,1-.4.035q-7.583,0-15.166,0a1.462,1.462,0,0,1-.432-.048.446.446,0,0,1-.345-.56,1.076,1.076,0,0,1,.43-.464c.092-.064.26-.023.394-.023h7.528" transform="translate(-158.385 -217.581)"/>
      </g>
    </g>
  </g>
</svg>
